<svg xmlns="http://www.w3.org/2000/svg" viewBox="0 0 200 200">
  <circle cx="100" cy="100" r="100" fill="#E4B429"/>
  <circle cx="100" cy="100" r="80" fill="none" stroke="#2B2B2B" stroke-width="12"/>
  <circle cx="100" cy="100" r="60" fill="none" stroke="#2B2B2B" stroke-width="8"/>
  <circle cx="100" cy="100" r="40" fill="none" stroke="#2B2B2B" stroke-width="6"/>
  <circle cx="100" cy="100" r="15" fill="#2B2B2B"/>
  
  <!-- Outer ring segments -->
  <path d="M 100 20 A 80 80 0 0 1 156.57 56.57" fill="none" stroke="#2B2B2B" stroke-width="12" stroke-linecap="round"/>
  <path d="M 100 20 A 80 80 0 0 0 43.43 56.57" fill="none" stroke="#2B2B2B" stroke-width="12" stroke-linecap="round"/>
  <path d="M 156.57 143.43 A 80 80 0 0 1 100 180" fill="none" stroke="#2B2B2B" stroke-width="12" stroke-linecap="round"/>
  <path d="M 43.43 143.43 A 80 80 0 0 0 100 180" fill="none" stroke="#2B2B2B" stroke-width="12" stroke-linecap="round"/>
  
  <!-- Middle ring segments -->
  <path d="M 100 40 A 60 60 0 0 1 142.43 68.28" fill="none" stroke="#2B2B2B" stroke-width="8" stroke-linecap="round"/>
  <path d="M 100 40 A 60 60 0 0 0 57.57 68.28" fill="none" stroke="#2B2B2B" stroke-width="8" stroke-linecap="round"/>
  <path d="M 142.43 131.72 A 60 60 0 0 1 100 160" fill="none" stroke="#2B2B2B" stroke-width="8" stroke-linecap="round"/>
  <path d="M 57.57 131.72 A 60 60 0 0 0 100 160" fill="none" stroke="#2B2B2B" stroke-width="8" stroke-linecap="round"/>
  
  <!-- Inner ring segments -->
  <path d="M 100 60 A 40 40 0 0 1 128.28 80" fill="none" stroke="#2B2B2B" stroke-width="6" stroke-linecap="round"/>
  <path d="M 100 60 A 40 40 0 0 0 71.72 80" fill="none" stroke="#2B2B2B" stroke-width="6" stroke-linecap="round"/>
  <path d="M 128.28 120 A 40 40 0 0 1 100 140" fill="none" stroke="#2B2B2B" stroke-width="6" stroke-linecap="round"/>
  <path d="M 71.72 120 A 40 40 0 0 0 100 140" fill="none" stroke="#2B2B2B" stroke-width="6" stroke-linecap="round"/>
</svg>